<?xml version="1.0" standalone="no"?>
<!DOCTYPE svg PUBLIC "-//W3C//DTD SVG 20010904//EN"
 "http://www.w3.org/TR/2001/REC-SVG-20010904/DTD/svg10.dtd">
<svg version="1.0" xmlns="http://www.w3.org/2000/svg"
 width="175.000000pt" height="175.000000pt" viewBox="0 0 175.000000 175.000000"
 preserveAspectRatio="xMidYMid meet">
<metadata>
Created by potrace 1.11, written by Peter Selinger 2001-2013
</metadata>
<g transform="translate(0.000000,175.000000) scale(0.100000,-0.100000)"
fill="#000000" stroke="none">
<path d="M0 875 l0 -875 875 0 875 0 0 875 0 875 -875 0 -875 0 0 -875z m1050
619 c207 -61 383 -238 446 -449 25 -82 25 -258 0 -340 -64 -213 -238 -387
-451 -451 -82 -25 -258 -25 -340 0 -213 64 -387 238 -451 451 -25 82 -25 258
0 340 70 234 277 423 507 464 72 13 221 5 289 -15z"/>
<path d="M770 1245 c-109 -30 -220 -132 -255 -235 -56 -162 -4 -341 130 -442
167 -126 410 -91 537 77 126 167 91 410 -77 537 -27 21 -70 45 -95 54 -66 23
-175 27 -240 9z"/>
</g>
</svg>
